<svg width="20" height="20" viewBox="0 0 20 20" fill="none" xmlns="http://www.w3.org/2000/svg">
<path d="M15.4047 7.99366C14.7438 8.13741 14.1734 8.50616 13.9063 9.1421C13.7453 9.52804 13.5203 10.5249 12.9031 10.2671C12.6078 10.1452 12.6125 9.72179 12.6469 9.45773C12.7203 8.91554 12.9641 8.42023 13.1313 7.9046C13.3031 7.37023 13.4516 6.83273 13.5578 6.2796C13.9141 4.44835 13.8156 2.33898 12.5203 0.874913C12.3016 0.624913 11.75 0.0467881 11.3859 0.0342881C11.1609 0.0280381 11.3828 0.293663 11.4453 0.382726C11.5719 0.565538 11.6781 0.763976 11.7594 0.971788C12.7172 3.41554 10.3563 5.27648 8.8047 6.72491C8.06094 7.42023 7.4672 8.15773 6.93282 9.01866C6.8797 9.10148 6.76251 9.3796 6.61095 9.32179C6.43126 9.25304 6.41251 8.8421 6.35626 8.68898C6.25001 8.39523 6.08595 8.07491 5.87501 7.84523C5.4672 7.39835 4.89688 7.09679 4.2797 7.13741C4.25626 7.13898 4.18907 7.14991 4.10626 7.16866C3.97657 7.19679 3.6297 7.2421 3.72345 7.45148C3.77188 7.55929 3.91407 7.54991 4.01563 7.5796C5.31876 7.9796 5.28907 9.34523 5.07813 10.4421C4.69688 12.439 3.64063 14.3265 4.39063 16.3796C5.27501 18.7999 8.04376 20.3109 10.5563 19.8952C11.2422 19.7827 12.0328 19.5609 12.6484 19.2296C13.3031 18.8765 14.0203 18.3937 14.5313 17.8499C15.1891 17.1515 15.6078 16.2562 15.7313 15.3077C15.8766 14.2109 15.5266 13.1765 15.2078 12.1405C14.8234 10.8905 14.3813 8.84991 15.9781 8.23898C16.0563 8.20773 16.2125 8.18429 16.2672 8.10148C16.4703 7.79835 15.4953 7.97491 15.4047 7.99366Z" fill="#ED6C30"/>
<path d="M10.6453 16.5733C10.9766 16.8515 11.4406 16.7155 11.7531 16.478C11.9203 16.3515 12.0641 16.189 12.1578 15.9999C12.1969 15.9186 12.2422 15.8155 12.2422 15.7233C12.2422 15.5999 12.1688 15.478 12.2 15.3515C12.4625 15.2999 12.7875 16.0546 12.8203 16.2296C13.0828 17.6093 11.7828 18.7468 10.5281 18.9671C8.41095 19.3374 7.19376 17.4827 7.43751 15.8358C7.58907 14.8108 8.27658 14.1061 8.97658 13.403C9.55626 12.8202 10.0938 12.3202 10.2813 11.5624C10.3141 11.428 10.3063 11.2218 10.2672 11.089C10.2344 10.9749 10.1719 10.8702 10.1688 10.7468C10.1594 10.4874 10.4109 10.8265 10.4688 10.8921C11.1656 11.678 11.3641 12.839 11.1781 13.8546C11.0578 14.5108 10.5891 14.9796 10.425 15.6077C10.3297 15.9655 10.3391 16.314 10.6453 16.5733Z" fill="#FCC21B"/>
</svg>
