<svg width="18" height="18" viewBox="0 0 18 18" fill="none" xmlns="http://www.w3.org/2000/svg">
<path d="M5.54249 3.21422H4.54413C4.65551 2.66981 4.95144 2.18056 5.3819 1.82916C5.81236 1.47776 6.35095 1.28577 6.90663 1.28564H13.0138C13.9941 1.28564 14.9343 1.67509 15.6275 2.3683C16.3208 3.06152 16.7102 4.00172 16.7102 4.98207V11.0892C16.7102 11.6438 16.519 12.1814 16.1689 12.6115C15.8188 13.0416 15.3311 13.3379 14.7881 13.4504V12.4508C15.0685 12.3501 15.311 12.1652 15.4824 11.9215C15.6538 11.6778 15.7459 11.3872 15.7459 11.0892V4.98207C15.7459 4.25746 15.4581 3.56253 14.9457 3.05016C14.4333 2.53778 13.7384 2.24993 13.0138 2.24993H6.90663C6.60744 2.24984 6.31559 2.34253 6.07128 2.51523C5.82697 2.68793 5.64222 2.93214 5.54249 3.21422ZM3.69685 3.85707C3.05749 3.85707 2.44431 4.11106 1.99221 4.56315C1.54012 5.01525 1.28613 5.62843 1.28613 6.26779V14.3035C1.28613 14.9429 1.54012 15.556 1.99221 16.0081C2.44431 16.4602 3.05749 16.7142 3.69685 16.7142H11.7326C12.3719 16.7142 12.9851 16.4602 13.4372 16.0081C13.8893 15.556 14.1433 14.9429 14.1433 14.3035V6.26779C14.1433 5.62843 13.8893 5.01525 13.4372 4.56315C12.9851 4.11106 12.3719 3.85707 11.7326 3.85707H3.69685ZM2.25042 6.26779C2.25042 5.88417 2.40281 5.51627 2.67407 5.24501C2.94533 4.97375 3.31323 4.82136 3.69685 4.82136H11.7326C12.1162 4.82136 12.4841 4.97375 12.7553 5.24501C13.0266 5.51627 13.179 5.88417 13.179 6.26779V14.3035C13.179 14.6871 13.0266 15.055 12.7553 15.3263C12.4841 15.5975 12.1162 15.7499 11.7326 15.7499H3.69685C3.31323 15.7499 2.94533 15.5975 2.67407 15.3263C2.40281 15.055 2.25042 14.6871 2.25042 14.3035V6.26779Z" fill="black"/>
</svg>
