<svg width="20" height="20" viewBox="0 0 20 20" fill="none" xmlns="http://www.w3.org/2000/svg">
<path d="M10.0004 5.36675V8.14175M10.0171 1.66675C6.9504 1.66675 4.46707 4.15008 4.46707 7.21675V8.96675C4.46707 9.53342 4.23374 10.3834 3.94207 10.8667L2.88374 12.6334C2.23374 13.7251 2.68374 14.9417 3.88374 15.3417C7.86814 16.6667 12.1743 16.6667 16.1587 15.3417C16.4216 15.254 16.6615 15.1084 16.8606 14.9155C17.0596 14.7227 17.2128 14.4876 17.3088 14.2276C17.4048 13.9676 17.4412 13.6894 17.4152 13.4134C17.3892 13.1375 17.3016 12.8709 17.1587 12.6334L16.1004 10.8667C15.8087 10.3834 15.5754 9.52508 15.5754 8.96675V7.21675C15.5671 4.16675 13.0671 1.66675 10.0171 1.66675Z" stroke="black" stroke-width="1.5" stroke-miterlimit="10" stroke-linecap="round"/>
<path d="M12.7746 15.6833C12.7746 17.2083 11.5246 18.4583 9.99961 18.4583C9.24128 18.4583 8.54128 18.1417 8.04128 17.6417C7.54128 17.1417 7.22461 16.4417 7.22461 15.6833" stroke="black" stroke-width="1.5" stroke-miterlimit="10"/>
</svg>
