<svg width="20" height="20" viewBox="0 0 20 20" fill="none" xmlns="http://www.w3.org/2000/svg">
<path d="M6.18783 14.2292L11.3962 11.7917C11.4795 11.7501 11.5559 11.6945 11.6253 11.6251C11.6948 11.5556 11.7503 11.4792 11.792 11.3959L14.2295 6.18758C14.285 6.06258 14.2606 5.94786 14.1562 5.84341C14.0517 5.73897 13.9373 5.7148 13.8128 5.77091L8.60449 8.20841C8.52116 8.25008 8.44477 8.30564 8.37533 8.37508C8.30588 8.44453 8.25033 8.52091 8.20866 8.60425L5.77116 13.8126C5.7156 13.9376 5.74005 14.0523 5.84449 14.1567C5.94894 14.2612 6.06338 14.2854 6.18783 14.2292ZM10.0003 10.8334C9.76421 10.8334 9.56616 10.7534 9.40616 10.5934C9.24616 10.4334 9.16644 10.2356 9.16699 10.0001C9.16699 9.76397 9.24699 9.56591 9.40699 9.40591C9.56699 9.24591 9.76477 9.16619 10.0003 9.16675C10.2364 9.16675 10.4345 9.24675 10.5945 9.40675C10.7545 9.56675 10.8342 9.76453 10.8337 10.0001C10.8337 10.2362 10.7537 10.4342 10.5937 10.5942C10.4337 10.7542 10.2359 10.834 10.0003 10.8334ZM10.0003 18.3334C8.84755 18.3334 7.76421 18.1145 6.75033 17.6767C5.73644 17.239 4.85449 16.6454 4.10449 15.8959C3.35449 15.1459 2.76088 14.264 2.32366 13.2501C1.88644 12.2362 1.66755 11.1529 1.66699 10.0001C1.66699 8.8473 1.88588 7.76397 2.32366 6.75008C2.76144 5.73619 3.35505 4.85425 4.10449 4.10425C4.85449 3.35425 5.73644 2.76064 6.75033 2.32341C7.76421 1.88619 8.84755 1.6673 10.0003 1.66675C11.1531 1.66675 12.2364 1.88564 13.2503 2.32341C14.2642 2.76119 15.1462 3.3548 15.8962 4.10425C16.6462 4.85425 17.24 5.73619 17.6778 6.75008C18.1156 7.76397 18.3342 8.8473 18.3337 10.0001C18.3337 11.1529 18.1148 12.2362 17.677 13.2501C17.2392 14.264 16.6456 15.1459 15.8962 15.8959C15.1462 16.6459 14.2642 17.2398 13.2503 17.6776C12.2364 18.1154 11.1531 18.334 10.0003 18.3334Z" fill="black"/>
</svg>
