<svg width="20" height="20" viewBox="0 0 20 20" fill="none" xmlns="http://www.w3.org/2000/svg">
<path d="M10.1608 14.4829C10.1608 14.4829 0.749886 17.3563 0.729573 17.5641C0.709261 17.7719 4.49676 19.4422 10.8264 19.3547C16.8639 19.2719 19.1968 17.7313 19.2374 17.5641C19.278 17.3969 10.3686 14.4407 10.1608 14.4829Z" fill="#88B154"/>
<path d="M9.72852 6.58589L9.05508 5.73901C9.05508 5.73901 7.96758 6.87964 7.67383 7.19058C7.38008 7.50151 7.15352 7.6812 7.01289 7.97339C6.81133 8.39058 6.17227 11.9921 6.17227 11.9921L4.32383 13.8906C4.32383 13.8906 3.97539 13.6734 3.88945 13.7437C3.80352 13.814 0.972266 17.189 0.972266 17.189L0.728516 17.5625C0.728516 17.5625 1.29102 17.6875 1.46445 17.6703C1.54883 17.6625 1.96445 17.5671 2.43477 17.5187C2.93008 17.4671 3.56289 17.5093 3.6332 17.5015C3.71289 17.4937 3.98789 17.4125 3.98789 17.4125L6.44727 15.9453L8.40039 15.8703L10.316 16.2734L13.9426 16.4468L15.9285 13.4765L11.6113 7.75933L9.72852 6.58589Z" fill="#9EA2A3"/>
<path d="M4.46075 15.2766C4.46075 15.2766 4.39356 15.0844 4.34356 14.9422C4.29356 14.8 4.32325 13.8906 4.32325 13.8906C4.32325 13.8906 5.44981 14.5562 5.57481 14.6656C5.69981 14.775 6.81543 15.4703 6.81543 15.4703L7.48731 15.4531L7.62325 15.7547C7.62325 15.7547 6.65606 16.2141 6.33731 16.3156C6.01856 16.4156 3.97637 17.4547 3.9795 17.4156C3.98575 17.3344 4.51075 16.5828 4.51075 16.5828L4.46075 15.2766Z" fill="#717A7C"/>
<path d="M12.614 16.1655L4.91711 17.3812C4.91711 17.3812 4.54523 17.7108 4.58273 17.7983C4.62023 17.8858 6.04055 18.1499 6.53117 18.2124C7.0218 18.2749 10.3765 18.464 10.7405 18.439C11.1046 18.414 14.8249 18.2249 15.3405 18.1624C15.8562 18.0999 17.589 17.9796 17.703 17.928C17.9234 17.828 18.9343 17.2827 18.9343 17.2827C18.9343 17.2827 17.803 15.4983 17.5765 15.0702C17.3499 14.6437 16.9734 13.8765 16.7093 13.6124C16.4452 13.3483 16.2562 13.2358 16.2562 13.2358C16.2562 13.2358 15.8999 12.4077 15.4843 11.8796C15.0702 11.3515 14.503 10.4968 14.3702 10.3655C13.8718 9.86865 13.8577 9.82178 13.8577 9.82178L14.1702 13.5874C14.1702 13.5874 13.5921 14.7437 13.3905 15.0577C13.1921 15.3749 12.614 16.1655 12.614 16.1655Z" fill="#798082"/>
<path d="M9.84883 4.31551L9.69727 7.38113L11.4801 8.48738C11.4801 8.48738 12.016 9.86082 12.041 9.98738C12.066 10.1124 12.0176 10.4514 12.0676 10.5389C12.1176 10.6264 13.041 11.2624 13.077 11.2639C13.2816 11.2749 13.7051 11.2014 13.6801 11.1639C13.6551 11.1264 13.8488 10.3108 13.8488 10.3108C13.8488 10.3108 12.6238 8.32488 12.3598 7.77176C12.0957 7.21863 11.1035 5.78582 10.9895 5.54676C10.8754 5.3077 10.3363 4.51551 10.2223 4.39051C10.1082 4.26551 9.92539 4.22801 9.84883 4.31551Z" fill="#717A7C"/>
<path d="M10.6284 10.164C10.6284 10.164 11.4706 8.77651 11.4956 8.56401C11.5206 8.35151 10.8175 7.0562 10.6409 6.59058C10.4644 6.12495 10.0003 5.17026 9.9503 5.04526C9.9003 4.92026 9.8503 4.31714 9.8503 4.31714C9.8503 4.31714 9.49873 4.6937 9.37217 4.99526C9.24717 5.29683 8.77373 6.03901 8.77373 6.03901C8.77373 6.03901 9.07061 7.76089 9.18467 8.50151C9.29717 9.2437 9.38155 10.2171 9.36436 10.2531C9.25655 10.4718 8.53155 12.2343 8.53155 12.2343C8.53155 12.2343 8.4378 13.089 8.5253 13.1765C8.6128 13.264 9.12061 13.3796 9.15967 13.3203C9.23623 13.2062 9.23467 12.7734 9.23467 12.7734C9.23467 12.7734 10.644 10.8703 10.6894 10.7765C10.7065 10.7406 10.6284 10.164 10.6284 10.164ZM7.75655 10.3C7.75186 10.1109 7.4753 9.21401 7.4253 9.01245C7.3753 8.81089 7.26905 7.81558 7.12998 7.81558C6.99248 7.81558 6.35498 9.5687 6.29092 9.73276C6.22842 9.89683 5.33623 11.8187 5.22217 12.0453C5.10967 12.2718 4.59405 13.2515 4.49405 13.4156C4.39405 13.5796 4.26123 13.8578 4.26123 13.8578L6.81436 15.4718L7.73623 15.3671C7.73623 15.3671 7.19717 13.9187 7.07061 13.5921C6.94405 13.2656 6.79405 12.7375 6.79405 12.7375C6.79405 12.7375 7.08623 12.0375 7.27686 11.5343C7.46905 11.0281 7.7628 10.4875 7.75655 10.3ZM3.95655 13.7453C3.9628 13.7687 3.99561 14.3578 3.97842 14.7093C3.96123 15.0625 3.89248 15.4156 3.89248 15.4156L2.75498 16.6031L2.71905 16.8703C2.71905 16.8703 0.99092 17.4812 0.87842 17.5156C0.76592 17.55 0.729983 17.5625 0.729983 17.5625C0.729983 17.5625 0.495608 17.4203 1.19717 16.6546C2.10342 15.6656 3.2628 14.3109 3.40967 14.1406C3.67061 13.839 3.93936 13.675 3.95655 13.7453Z" fill="#C0C0C0"/>
<path d="M16.6736 15.5968C16.5798 15.5578 16.3408 16.6156 16.2908 16.989C16.2408 17.3624 16.108 18.0718 16.1423 18.1421C16.2423 18.3406 17.308 18.2093 17.4111 18.039C17.4408 17.9906 17.2908 17.1953 17.183 16.8593C17.0361 16.3999 16.9158 15.6984 16.6736 15.5968ZM18.5408 14.264C18.3939 14.2703 18.2376 15.5531 18.1408 15.8328C18.0314 16.1499 17.6658 17.6515 17.8173 17.8234C17.9689 17.9953 18.5486 17.8593 18.7642 17.7968C18.972 17.7374 19.1517 17.6374 19.2017 17.5265C19.2517 17.4156 19.133 16.5203 18.9892 15.8953C18.8423 15.2624 18.772 14.2531 18.5408 14.264Z" fill="#33632C"/>
<path d="M4.91735 17.3828C4.91735 17.3828 5.32204 17.5359 6.70798 17.6219C8.09391 17.7078 8.77516 17.7 8.77516 17.7L11.9408 17.2375L12.6595 16.1C12.6595 16.1 11.7033 16.064 11.1955 16.0469C10.6877 16.0297 9.92985 16.0265 9.89548 15.9328C9.8611 15.8375 10.7502 15.1922 11.0002 15.064C11.2502 14.9344 11.8533 14.8656 11.9908 14.7203C12.1283 14.5734 13.8658 13.5937 14.0799 13.5859C14.2955 13.5765 14.9674 13.9906 15.0955 13.9469C15.2252 13.9031 14.6486 12.3781 14.572 12.0922C14.5658 12.0672 14.2611 10.5812 14.2517 10.5531C14.1799 10.3328 13.9595 9.76092 13.8205 9.82967C13.683 9.89842 13.4502 10.4234 13.2783 10.9484C13.1064 11.4734 13.0033 11.75 12.9173 11.8781C12.8314 12.0062 11.833 12.6453 11.6939 12.7906C11.5564 12.9375 11.1424 13.2469 10.8924 13.35C10.6424 13.4531 10.4017 13.4531 10.2205 13.6172C10.0392 13.7812 9.81579 14.0656 9.56579 14.3312C9.31579 14.5984 8.80798 15.2109 8.64079 15.3609C8.4736 15.5109 8.3236 15.6562 8.3236 15.6562C8.3236 15.6562 7.11579 15.9984 6.70954 16.1953C6.30641 16.3937 4.81266 17.3562 4.91735 17.3828Z" fill="#C0C0C0"/>
<path d="M17.4674 8.12816C17.3346 8.26098 17.3299 8.47191 17.4768 8.59223C17.6065 8.70004 17.8205 8.62973 17.9002 8.53285C17.9799 8.43598 17.9705 8.22504 17.8643 8.11879C17.758 8.01254 17.5471 8.04848 17.4674 8.12816Z" fill="white"/>
<path opacity="0.5" d="M17.5107 10.1046C17.3685 10.2609 17.4154 10.4937 17.5466 10.5796C17.6779 10.6656 17.8748 10.6578 17.9716 10.539C18.0576 10.4328 18.067 10.2203 17.9357 10.089C17.8216 9.97494 17.6029 10.0031 17.5107 10.1046Z" fill="white"/>
<path opacity="0.6" d="M13.4373 5.00947C13.3967 5.13915 13.4779 5.28603 13.6014 5.3079C13.7311 5.33134 13.8639 5.29384 13.8998 5.1704C13.9358 5.0454 13.8904 4.88915 13.7123 4.8579C13.5342 4.82665 13.4576 4.93915 13.4373 5.00947Z" fill="white"/>
<path d="M14.7721 7.20472C14.7721 7.20472 14.8877 6.77972 14.9721 6.76566C15.0565 6.7516 15.2252 7.22191 15.2252 7.22191C15.2252 7.22191 15.6455 7.23597 15.6596 7.3016C15.6736 7.36879 15.3627 7.62035 15.3627 7.62035C15.3627 7.62035 15.4783 8.0141 15.4299 8.0641C15.3815 8.11254 14.9955 7.8641 14.9955 7.8641C14.9955 7.8641 14.6502 8.15629 14.5705 8.10316C14.4908 8.05004 14.6377 7.61097 14.6377 7.61097C14.6377 7.61097 14.3096 7.3766 14.3049 7.29691C14.2986 7.21722 14.7721 7.20472 14.7721 7.20472ZM5.24084 6.03441C5.24084 6.03441 5.3924 5.59847 5.48459 5.59379C5.57521 5.5891 5.70802 6.02972 5.70802 6.02972C5.70802 6.02972 6.15802 6.03441 6.18927 6.10004C6.22834 6.18441 5.90021 6.47035 5.90021 6.47035C5.90021 6.47035 6.00646 6.89535 5.95646 6.94691C5.90021 7.00316 5.51115 6.77972 5.51115 6.77972C5.51115 6.77972 5.11115 7.05785 5.02521 6.98285C4.95021 6.91722 5.10646 6.46566 5.10646 6.46566C5.10646 6.46566 4.73146 6.19222 4.75177 6.11566C4.77834 6.00941 5.24084 6.03441 5.24084 6.03441Z" fill="white"/>
<path opacity="0.5" d="M1.85273 7.20476C1.75898 7.20007 1.63086 7.29382 1.63086 7.45476C1.63086 7.57351 1.74492 7.67194 1.84336 7.67194C1.98555 7.67194 2.08398 7.56413 2.0793 7.44069C2.07305 7.27976 1.95117 7.20945 1.85273 7.20476Z" fill="white"/>
<path d="M2.88622 9.53592C2.8956 9.71405 2.98466 9.86561 3.21591 9.85936C3.44716 9.85311 3.63779 9.49842 3.41747 9.29061C3.19716 9.0828 2.87372 9.29686 2.88622 9.53592ZM1.35185 11.7156C1.46122 11.8375 1.72372 11.789 1.72997 11.575C1.73622 11.3797 1.63779 11.2875 1.45497 11.3125C1.27372 11.3375 1.21904 11.5672 1.35185 11.7156ZM4.44716 14.1187L4.16122 13.7562L3.60341 14.0125L2.30654 16.1094L2.75029 16.6094C2.75029 16.6094 3.83622 16.0125 3.95185 15.989C4.12529 15.9531 4.70654 15.9765 4.70654 15.9765L4.44716 14.1187Z" fill="white"/>
<path d="M4.48906 15.9735L5.36719 15.9891C5.36719 15.9891 6.30469 16.2813 6.71094 16.1954C7.11719 16.1094 7.57656 15.7344 7.57656 15.7344C7.57656 15.7344 7.93125 15.5907 7.75469 15.386C7.71406 15.3391 7.44844 15.2657 6.725 15.0844C6.00156 14.9032 5.90781 14.7625 5.90781 14.7625C5.90781 14.7625 5.06563 14.1782 4.76406 13.9516C4.4625 13.725 4.16406 13.7219 4.16406 13.7219C4.16406 13.7219 4.35781 14.4375 4.40156 14.8672C4.44375 15.2969 4.48906 15.9735 4.48906 15.9735Z" fill="#8CC2EA"/>
<path d="M0.899898 17.022C0.790523 17.1548 1.58584 16.9157 1.89052 16.8423C2.27959 16.7485 2.75302 16.6063 2.75302 16.6063L2.87802 15.6563C2.87802 15.6563 3.69209 14.1938 3.79834 14.072C3.90459 13.9501 4.31709 13.7454 4.31709 13.7454C4.31709 13.7454 4.07021 13.622 3.8999 13.6126C3.61084 13.597 3.05927 14.2391 2.77177 14.6157C2.48584 14.9923 1.9874 15.672 1.9874 15.672C1.9874 15.672 1.75459 15.7345 1.51709 16.0688C1.15927 16.5751 0.899898 17.022 0.899898 17.022Z" fill="#C6E4F7"/>
<path d="M6.21844 14.1548C6.11219 14.1439 5.97782 14.4985 5.90594 14.7626C5.85438 14.9485 5.52157 15.8907 5.4825 16.0735C5.44188 16.2579 5.23563 16.8017 5.29188 16.8267C5.34813 16.8501 5.53094 16.8923 5.62782 16.8532C5.65282 16.8439 5.99188 16.6095 6.23719 16.4626C6.4825 16.3157 6.72469 16.1829 6.72469 16.1735C6.72469 16.0782 6.53719 15.2001 6.51688 15.0829C6.45907 14.747 6.38407 14.172 6.21844 14.1548Z" fill="#33632C"/>
<path d="M7.17369 14.5078C7.0815 14.539 6.96744 14.8953 6.85963 15.264C6.79088 15.4968 6.59088 16.1953 6.63932 16.2296C6.68775 16.264 7.16119 16.2703 7.36119 16.1703C7.55338 16.0734 7.69088 15.9515 7.71588 15.8828C7.74088 15.814 7.52213 15.2078 7.43775 14.9859C7.37213 14.8187 7.27057 14.4734 7.17369 14.5078Z" fill="#33632C"/>
<path d="M7.2793 11.0078L5.34805 11.7781L5.19336 12.1109C5.19336 12.1109 5.49336 12.4469 5.70273 12.6734C5.88398 12.8688 6.36836 13.1281 6.4543 13.3031C6.62305 13.6469 7.28398 14 7.61367 14.1656C7.94336 14.3313 7.95742 14.1375 7.95742 14.1375L7.2793 11.0078ZM8.10273 15.5422L7.71836 15.8219C7.71836 15.8219 8.13242 16.0984 8.43867 16.1906C8.74492 16.2828 9.23555 16.4656 9.75586 16.5578C10.2762 16.65 10.7668 16.5891 11.1027 16.6188C11.4402 16.65 12.1277 16.9906 12.1277 16.9906C12.1277 16.9906 12.273 16.6922 12.4184 16.4859C12.5637 16.2813 12.6121 16.1672 12.6121 16.1672L11.2902 15.8797L8.10273 15.5422Z" fill="#9EA2A3"/>
<path d="M11.9559 16.5671C11.8434 16.5765 11.6856 17.4202 11.6294 17.6077C11.5981 17.714 11.3372 18.4405 11.4075 18.5624C11.5481 18.8124 12.7044 18.7452 12.7559 18.614C12.8059 18.4827 12.4262 17.6046 12.3559 17.4421C12.284 17.2827 12.1215 16.553 11.9559 16.5671Z" fill="#33632C"/>
<path d="M7.17637 7.72349L5.47168 11.9016C5.47168 11.9016 5.57793 12.0672 5.72793 12.2485C5.87949 12.4297 6.4373 12.8813 6.61855 13.0172C6.7998 13.1532 6.81543 13.2735 7.04043 13.425C7.26699 13.5766 8.08105 13.9688 8.36855 14.1188L9.1373 14.5266C9.1373 14.5266 8.65449 15.025 8.51855 15.2204C8.38262 15.4172 8.26699 15.6079 8.26699 15.6079L10.7654 15.9891C10.7654 15.9891 15.1217 14.0391 15.0936 13.9438C15.0654 13.8485 14.9139 11.736 14.8232 11.6297C14.7326 11.5235 13.8123 10.0454 13.8123 10.0454L12.892 9.90942L11.4436 7.16411L9.92012 4.67505L8.87949 6.28911L8.32168 7.31411L7.17637 7.72349Z" fill="white"/>
<path d="M9.15312 13.6203C9.13593 13.725 9.40937 14.164 9.52968 14.1484C9.64999 14.1328 10.3594 13.5156 10.5406 13.3937C10.7219 13.2734 11.7781 12.5937 12.0187 12.4437C12.2594 12.2922 12.8937 11.739 12.9391 11.6594C12.9984 11.5515 13.1875 10.5812 13.225 10.4531C13.2422 10.3969 13.6 10.1156 13.6391 10.164C13.7172 10.2594 14.0547 11.1922 14.1297 11.4484C14.2047 11.7047 14.6578 13.5156 14.6875 13.6359C14.7328 13.814 15.0641 14.1484 15.3359 13.9828C15.6078 13.8172 16.3531 13.5187 16.4406 13.3765C16.4875 13.3015 15.8437 12.3562 15.4984 11.8625C15.1531 11.3687 14.8328 10.85 14.5141 10.4078C14.2531 10.0453 14.0906 9.82029 13.9172 9.72811C13.7422 9.63592 13.5937 9.84998 13.5937 9.84998C13.5937 9.84998 12.3187 7.64529 12.0922 7.25311C11.8656 6.86092 10.6672 4.97811 10.3687 4.54529C10.1734 4.26092 10.0516 4.17811 9.86874 4.28279C9.68593 4.38592 9.78437 5.15623 9.78437 5.15623C9.78437 5.15623 11.4922 8.42498 11.4141 8.64061C11.3344 8.85623 10.7047 10.014 10.3578 10.7078C10.0125 11.4031 9.19843 13.35 9.15312 13.6203Z" fill="#8CC2EA"/>
<path d="M7.33264 8.06094C7.45764 7.87344 8.53421 10.3016 8.80608 10.3313C9.07796 10.3609 9.25921 8.47656 9.22796 8.05313C9.19827 7.63125 9.22796 6.22813 9.34827 5.92656C9.46858 5.625 9.78577 5.15781 9.78577 5.15781C9.78577 5.15781 9.96233 4.78281 9.97952 4.68281C10.0311 4.39375 9.96233 4.24219 9.96233 4.24219C9.96233 4.24219 9.78577 4.28281 9.61858 4.50938C9.45296 4.73594 8.77014 6.0375 8.77014 6.0375C8.77014 6.0375 7.91389 6.89375 7.67327 7.05938C7.43264 7.225 7.08421 7.43594 7.00921 7.57187C6.93421 7.70781 6.34514 9.34531 6.0592 10C5.70295 10.8187 5.35921 11.5156 5.34671 11.7781C5.34358 11.8297 5.62796 12.125 5.62796 12.125C5.62796 12.125 5.86702 11.6656 6.15296 10.9125C6.43889 10.1594 7.20921 8.24844 7.33264 8.06094ZM8.44514 15.3313C8.44514 15.3313 8.21858 15.6266 8.24514 15.6719C8.32014 15.8 9.42483 16.1234 9.62014 16.1547C9.81546 16.1859 10.9326 16.2906 11.3092 16.2609C11.6858 16.2312 12.6123 16.1656 12.6123 16.1656C12.6123 16.1656 13.2248 15.4313 13.3748 15.3094C13.5264 15.1891 14.3248 14.8875 14.3248 14.8875L15.3123 13.9969C15.3123 13.9969 15.0248 13.9766 14.8826 13.8922C14.7405 13.8078 14.6873 13.6344 14.6873 13.6344C14.6873 13.6344 13.9936 14.0266 13.7061 14.1781C13.4201 14.3297 12.3186 14.6906 12.0014 14.8719C11.6842 15.0531 10.7951 15.5047 10.7951 15.5047C10.7951 15.5047 9.22639 15.625 9.07483 15.5797C8.92639 15.5375 8.44514 15.3313 8.44514 15.3313Z" fill="#C6E4F7"/>
<path opacity="0.5" d="M5.55172 3.13741C5.40953 3.29366 5.45641 3.52647 5.58766 3.61241C5.71891 3.69835 5.91578 3.69053 6.01266 3.57178C6.0986 3.46553 6.10797 3.25303 5.97672 3.12178C5.86266 3.00928 5.64235 3.03741 5.55172 3.13741Z" fill="white"/>
</svg>
