<svg width="18" height="18" viewBox="0 0 18 18" fill="none" xmlns="http://www.w3.org/2000/svg">
<path d="M2.25 3.375C2.25 3.52418 2.30926 3.66726 2.41475 3.77275C2.52024 3.87824 2.66332 3.9375 2.8125 3.9375H15.1875C15.3367 3.9375 15.4798 3.87824 15.5852 3.77275C15.6907 3.66726 15.75 3.52418 15.75 3.375C15.75 3.22582 15.6907 3.08274 15.5852 2.97725C15.4798 2.87176 15.3367 2.8125 15.1875 2.8125H2.8125C2.66332 2.8125 2.52024 2.87176 2.41475 2.97725C2.30926 3.08274 2.25 3.22582 2.25 3.375ZM4.5 1.125C4.5 1.27418 4.55926 1.41726 4.66475 1.52275C4.77024 1.62824 4.91332 1.6875 5.0625 1.6875H12.9375C13.0867 1.6875 13.2298 1.62824 13.3352 1.52275C13.4407 1.41726 13.5 1.27418 13.5 1.125C13.5 0.975816 13.4407 0.832742 13.3352 0.727252C13.2298 0.621763 13.0867 0.5625 12.9375 0.5625H5.0625C4.91332 0.5625 4.77024 0.621763 4.66475 0.727252C4.55926 0.832742 4.5 0.975816 4.5 1.125ZM7.61062 7.398C7.52548 7.34478 7.42764 7.31533 7.32726 7.31269C7.22689 7.31006 7.12764 7.33434 7.03982 7.38301C6.952 7.43169 6.8788 7.50298 6.82784 7.5895C6.77688 7.67601 6.75 7.77459 6.75 7.875V13.5C6.75 13.6004 6.77688 13.699 6.82784 13.7855C6.8788 13.872 6.952 13.9433 7.03982 13.992C7.12764 14.0407 7.22689 14.0649 7.32726 14.0623C7.42764 14.0597 7.52548 14.0302 7.61062 13.977L12.1106 11.1645C12.1915 11.1139 12.2582 11.0436 12.3045 10.9602C12.3507 10.8767 12.375 10.7829 12.375 10.6875C12.375 10.5921 12.3507 10.4983 12.3045 10.4148C12.2582 10.3314 12.1915 10.2611 12.1106 10.2105L7.61062 7.398Z" fill="black"/>
<path d="M1.6875 16.3125C1.23995 16.3125 0.810725 16.1347 0.494257 15.8182C0.17779 15.5018 0 15.0726 0 14.625L0 6.75C0 6.30245 0.17779 5.87322 0.494257 5.55676C0.810725 5.24029 1.23995 5.0625 1.6875 5.0625H16.3125C16.7601 5.0625 17.1893 5.24029 17.5057 5.55676C17.8222 5.87322 18 6.30245 18 6.75V14.625C18 15.0726 17.8222 15.5018 17.5057 15.8182C17.1893 16.1347 16.7601 16.3125 16.3125 16.3125H1.6875ZM16.3125 15.1875C16.4617 15.1875 16.6048 15.1282 16.7102 15.0227C16.8157 14.9173 16.875 14.7742 16.875 14.625V6.75C16.875 6.60082 16.8157 6.45774 16.7102 6.35225C16.6048 6.24676 16.4617 6.1875 16.3125 6.1875H1.6875C1.53832 6.1875 1.39524 6.24676 1.28975 6.35225C1.18426 6.45774 1.125 6.60082 1.125 6.75V14.625C1.125 14.7742 1.18426 14.9173 1.28975 15.0227C1.39524 15.1282 1.53832 15.1875 1.6875 15.1875H16.3125Z" fill="black"/>
</svg>
