<svg width="20" height="20" viewBox="0 0 20 20" fill="none" xmlns="http://www.w3.org/2000/svg">
<path d="M3.06836 5.52043C3.08242 5.4798 3.0543 4.7673 3.45117 4.20636C3.84805 3.64542 4.36836 3.56261 4.75273 3.49386C5.21836 3.41105 6.3418 3.27511 6.51992 3.65792C6.69805 4.04074 6.56055 4.24699 6.84805 4.35636C7.13555 4.46574 6.61523 5.10949 6.61523 5.10949L3.06836 5.52043ZM16.8574 5.50636C16.8574 5.50636 16.9699 4.81418 16.5746 4.34699C15.9809 3.6423 15.0512 3.41417 14.1715 3.41417C13.8887 3.41417 13.5496 3.46886 13.4402 3.80636C13.3777 4.00168 13.334 4.23917 13.1965 4.26574C13.0605 4.29386 15.9668 5.1923 16.8574 5.50636Z" fill="#464C4F"/>
<path d="M6.09988 12.7016C5.63269 13.0641 5.01238 15.5641 4.04207 16.225C3.07175 16.8859 0.873317 16.5328 0.707692 15.1844C0.562379 13.9953 0.826442 11.4953 1.48894 8.94063C2.15144 6.38594 2.66082 5.12031 4.20925 4.70625C5.45144 4.37344 7.88582 4.13906 10.2499 4.1625C12.6155 4.18594 14.6858 4.18594 15.9874 4.68281C17.1546 5.12813 17.9499 6.33906 18.4952 8.70313C19.0389 11.0688 19.4593 13.9125 19.3936 14.8531C19.2983 16.225 17.3593 17.1 15.9171 16.0359C14.7686 15.1891 14.5452 13.0328 13.9546 12.725C13.3639 12.4172 6.52488 12.3703 6.09988 12.7016Z" fill="#5E6268"/>
<path d="M14.5708 12.0578C14.4583 12.1984 14.7177 12.4078 14.902 12.8656C15.0864 13.3234 15.5614 14.839 16.0223 15.2625C16.5973 15.789 17.0458 15.6906 17.1333 15.525C17.2208 15.3593 16.7239 14.9312 16.1395 13.9765C15.5552 13.0218 14.8052 11.7656 14.5708 12.0578ZM1.64422 11.6687C1.47078 11.7 1.01141 14.0062 1.35203 14.9812C1.63641 15.7937 2.72547 15.839 3.13484 15.7218C3.95047 15.489 4.20672 14.6984 4.02078 14.6109C3.83641 14.5234 3.18953 15.1422 2.57859 14.8547C1.89734 14.5328 1.90672 13.6265 1.81922 12.7109C1.74109 11.8859 1.80984 11.639 1.64422 11.6687ZM5.93953 6.55465C5.87547 6.55465 5.31297 6.55153 5.31297 6.55153L5.31609 5.87184C5.31609 5.87184 5.32859 5.3234 4.74109 5.3359C4.21453 5.34684 4.22547 5.7859 4.22547 5.87184C4.22547 5.95778 4.22234 6.54684 4.22234 6.54684C4.22234 6.54684 3.62547 6.54059 3.51453 6.54372C3.40359 6.54684 2.98797 6.55309 2.98797 7.08903C2.98797 7.59528 3.41766 7.63122 3.51453 7.63434C3.61141 7.63747 4.21922 7.63747 4.21922 7.63747C4.21922 7.63747 4.21453 8.20465 4.21609 8.29684C4.21766 8.38903 4.23484 8.8234 4.76141 8.8234C5.33641 8.8234 5.30672 8.29684 5.30672 8.29684L5.30984 7.64215C5.30984 7.64215 5.84734 7.64684 5.94109 7.64528C6.07547 7.64215 6.47078 7.60622 6.47703 7.07028C6.48172 6.54059 6.00516 6.55465 5.93953 6.55465Z" fill="#9E9E9E"/>
<path d="M7.56289 11.0875C8.29985 11.0875 8.89727 10.49 8.89727 9.75308C8.89727 9.01612 8.29985 8.4187 7.56289 8.4187C6.82594 8.4187 6.22852 9.01612 6.22852 9.75308C6.22852 10.49 6.82594 11.0875 7.56289 11.0875Z" fill="#AFAFAF"/>
<path d="M12.1488 11.1077C12.8858 11.1077 13.4832 10.5103 13.4832 9.77334C13.4832 9.03639 12.8858 8.43896 12.1488 8.43896C11.4119 8.43896 10.8145 9.03639 10.8145 9.77334C10.8145 10.5103 11.4119 11.1077 12.1488 11.1077Z" fill="#AFAFAF"/>
<path d="M7.56113 10.6125C8.05387 10.6125 8.45332 10.2131 8.45332 9.72031C8.45332 9.22757 8.05387 8.82812 7.56113 8.82812C7.06839 8.82812 6.66895 9.22757 6.66895 9.72031C6.66895 10.2131 7.06839 10.6125 7.56113 10.6125Z" fill="#C8C8C8"/>
<path d="M12.148 10.6423C12.6408 10.6423 13.0402 10.2428 13.0402 9.7501C13.0402 9.25736 12.6408 8.85791 12.148 8.85791C11.6553 8.85791 11.2559 9.25736 11.2559 9.7501C11.2559 10.2428 11.6553 10.6423 12.148 10.6423Z" fill="#C8C8C8"/>
<path d="M13.4092 7.85474C13.8061 7.85474 14.1279 7.53294 14.1279 7.13599C14.1279 6.73903 13.8061 6.41724 13.4092 6.41724C13.0122 6.41724 12.6904 6.73903 12.6904 7.13599C12.6904 7.53294 13.0122 7.85474 13.4092 7.85474Z" fill="#2086FA"/>
<path d="M14.834 9.2312C15.2309 9.2312 15.5527 8.90941 15.5527 8.51245C15.5527 8.1155 15.2309 7.7937 14.834 7.7937C14.437 7.7937 14.1152 8.1155 14.1152 8.51245C14.1152 8.90941 14.437 9.2312 14.834 9.2312Z" fill="#06AC48"/>
<path d="M16.2686 7.96875C16.6655 7.96875 16.9873 7.64696 16.9873 7.25C16.9873 6.85305 16.6655 6.53125 16.2686 6.53125C15.8716 6.53125 15.5498 6.85305 15.5498 7.25C15.5498 7.64696 15.8716 7.96875 16.2686 7.96875Z" fill="#F72E26"/>
<path d="M14.8467 6.50146C15.2436 6.50146 15.5654 6.17967 15.5654 5.78271C15.5654 5.38576 15.2436 5.06396 14.8467 5.06396C14.4497 5.06396 14.1279 5.38576 14.1279 5.78271C14.1279 6.17967 14.4497 6.50146 14.8467 6.50146Z" fill="#FDB700"/>
</svg>
