<svg width="20" height="20" viewBox="0 0 20 20" fill="none" xmlns="http://www.w3.org/2000/svg">
<g clip-path="url(#clip0_629_2388)">
<path d="M18.3337 18.3334L16.667 16.6667M9.58366 17.5001C10.6233 17.5001 11.6527 17.2953 12.6132 16.8975C13.5737 16.4996 14.4465 15.9165 15.1816 15.1813C15.9167 14.4462 16.4999 13.5735 16.8977 12.613C17.2956 11.6525 17.5003 10.623 17.5003 9.58341C17.5003 8.54378 17.2956 7.51433 16.8977 6.55384C16.4999 5.59334 15.9167 4.72062 15.1816 3.98549C14.4465 3.25036 13.5737 2.66722 12.6132 2.26937C11.6527 1.87152 10.6233 1.66675 9.58366 1.66675C7.48403 1.66675 5.47039 2.50082 3.98573 3.98549C2.50107 5.47015 1.66699 7.48378 1.66699 9.58341C1.66699 11.683 2.50107 13.6967 3.98573 15.1813C5.47039 16.666 7.48403 17.5001 9.58366 17.5001Z" stroke="black" stroke-width="1.5" stroke-linecap="round" stroke-linejoin="round"/>
</g>
<defs>
<clipPath id="clip0_629_2388">
<rect width="20" height="20" fill="white"/>
</clipPath>
</defs>
</svg>
